<svg width="10" height="16" viewBox="0 0 10 16" fill="none" xmlns="http://www.w3.org/2000/svg">
<path d="M4.77539 2.42035C5.74731 2.42035 6.53772 3.18736 6.53772 4.1305C6.53772 5.0708 5.74731 5.83781 4.77539 5.83781C3.80347 5.83781 3.01306 5.0708 3.01306 4.1305C3.01306 3.18736 3.80347 2.42035 4.77539 2.42035ZM4.77539 8.25816C7.12321 8.25816 9.03192 6.40597 9.03192 4.1305C9.03192 1.85219 7.12321 0 4.77539 0C2.42757 0 0.521792 1.85219 0.521792 4.1305C0.521792 6.40597 2.42757 8.25816 4.77539 8.25816ZM6.49674 11.6273C7.36326 11.4342 8.19759 11.1018 8.96751 10.6331C9.55008 10.278 9.72572 9.53083 9.35979 8.96551C8.99093 8.39735 8.22394 8.22691 7.63845 8.58485C5.89661 9.6473 3.65417 9.6473 1.90941 8.58485C1.32684 8.22691 0.556922 8.39735 0.190989 8.96551C-0.174944 9.53083 0.000703573 10.278 0.583268 10.6331C1.35319 11.1018 2.18752 11.4342 3.05404 11.6273L0.674019 13.934C0.188061 14.4056 0.188061 15.1726 0.674019 15.6442C0.919926 15.88 1.23609 15.9993 1.55518 15.9993C1.87428 15.9993 2.19337 15.88 2.43928 15.6442L4.77539 13.3772L7.11443 15.6442C7.60039 16.1186 8.38788 16.1186 8.87676 15.6442C9.36272 15.1726 9.36272 14.4056 8.87676 13.934L6.49674 11.6273Z" fill="currentColor"/>
</svg>
