<svg width="15" height="14" viewBox="0 0 15 14" fill="none" xmlns="http://www.w3.org/2000/svg">
<path d="M8.95897 0C8.47797 0 8.0266 0.22774 7.73708 0.556164C7.44757 0.884589 7.28799 1.28493 7.17173 1.70685C6.98708 2.38527 6.93009 3.13801 6.91641 3.81644C5.56458 3.90034 4.34041 4.27432 3.32369 4.85206C2.91108 4.52842 2.41411 4.34863 1.93767 4.35343C1.39511 4.35822 0.879912 4.57637 0.496932 5.02466C-0.234834 5.88048 -0.150487 7.28048 0.697541 8.11233C0.645109 8.36884 0.606355 8.63254 0.606355 8.89863C0.606355 11.7178 3.69299 14 7.5 14C11.307 14 14.3936 11.7154 14.3936 8.89863C14.3936 8.63254 14.3549 8.36884 14.3025 8.11233C15.1505 7.28048 15.2348 5.88048 14.5031 5.02466C14.1201 4.57637 13.6049 4.35822 13.0623 4.35343C12.5859 4.34863 12.0889 4.52842 11.6763 4.85206C10.6641 4.27671 9.44682 3.90274 8.10183 3.81644C8.12006 3.19075 8.16794 2.5411 8.30243 2.05205C8.38678 1.74521 8.48709 1.52226 8.59423 1.4C8.70137 1.27774 8.77888 1.2274 8.95897 1.2274C9.34879 1.2274 9.39894 1.34486 9.63375 1.63014C9.75229 1.77397 9.88907 1.95377 10.1079 2.12877C10.3268 2.30377 10.6505 2.45479 11.0015 2.45479V1.2274C10.9035 1.2274 10.8853 1.225 10.8192 1.16986C10.7531 1.11473 10.6619 0.987671 10.5274 0.824658C10.2584 0.496233 9.73633 0 8.95897 0ZM12.7523 0.115069C11.845 0.115069 11.111 0.886987 11.111 1.8411C11.111 2.79521 11.845 3.56712 12.7523 3.56712C13.6596 3.56712 14.3936 2.79521 14.3936 1.8411C14.3936 0.886987 13.6596 0.115069 12.7523 0.115069ZM12.7523 0.728767C13.3359 0.728767 13.8101 1.2274 13.8101 1.8411C13.8101 2.45479 13.3359 2.95342 12.7523 2.95342C12.1687 2.95342 11.6945 2.45479 11.6945 1.8411C11.6945 1.2274 12.1687 0.728767 12.7523 0.728767ZM7.5 4.77534C10.7303 4.77534 13.4635 6.66678 13.4635 8.89863C13.4635 11.1329 10.7303 13.0219 7.5 13.0219C4.26974 13.0219 1.53645 11.1329 1.53645 8.89863C1.53645 6.66678 4.26974 4.77534 7.5 4.77534ZM1.9559 5.33151C2.11776 5.3339 2.28645 5.37226 2.44831 5.44658C1.86244 5.91404 1.39739 6.45103 1.08052 7.05753C0.861675 6.58288 0.920946 5.99075 1.18994 5.67671C1.38599 5.44658 1.65727 5.32911 1.9559 5.33151ZM13.0441 5.33151C13.3427 5.32911 13.614 5.44658 13.8101 5.67671C14.0791 5.99075 14.1383 6.58288 13.9195 7.05753C13.6026 6.45103 13.1376 5.91404 12.5517 5.44658C12.7135 5.37226 12.8822 5.3339 13.0441 5.33151ZM5.16564 6.86575C4.58205 6.86575 4.10789 7.36438 4.10789 7.97808C4.10789 8.59178 4.58205 9.09041 5.16564 9.09041C5.74923 9.09041 6.2234 8.59178 6.2234 7.97808C6.2234 7.36438 5.74923 6.86575 5.16564 6.86575ZM9.83436 6.86575C9.25077 6.86575 8.7766 7.36438 8.7766 7.97808C8.7766 8.59178 9.25077 9.09041 9.83436 9.09041C10.4179 9.09041 10.8921 8.59178 10.8921 7.97808C10.8921 7.36438 10.4179 6.86575 9.83436 6.86575ZM4.60029 10.6438C4.97187 11.4517 6.12081 12.2356 7.5 12.2356C8.87918 12.2356 10.0464 11.4517 10.4179 10.6438C9.74317 11.1017 8.67858 11.411 7.5 11.411C6.32142 11.411 5.27507 11.1017 4.60029 10.6438Z" fill="#2D383F"/>
</svg>
